<?xml version="1.0" encoding="utf-8"?>
<!-- Generator: Adobe Illustrator 25.2.1, SVG Export Plug-In . SVG Version: 6.00 Build 0)  -->
<svg version="1.1" id="Layer_1" xmlns="http://www.w3.org/2000/svg" xmlns:xlink="http://www.w3.org/1999/xlink" x="0px" y="0px"
	 viewBox="0 0 1200 1200" style="enable-background:new 0 0 1200 1200;" xml:space="preserve">
<style type="text/css">
	.st0{stroke:#000000;stroke-miterlimit:10;}
	.st1{fill:#FFFFFF;}
</style>
<path class="st0" d="M635.21,1340.39l5.49,1.83L635.21,1340.39z"/>
<path d="M124.09,308.27c15.54,17.33,30.8,34.94,47.62,51.06c15.41,14.76,31.78,28.48,48.52,41.69c2.1,1.66,4.21,3.3,6.32,4.95
	c0.44,0.33,0.87,0.67,1.31,1.01c4.06,3.11,8.13,6.2,12.2,9.28c8.49,6.41,16.98,12.8,25.41,19.28
	c34.65,26.65,69.42,53.15,104.81,78.81c34.75,25.18,70.11,49.55,106.47,72.35c35.23,22.1,71.53,44.21,109.66,61.05
	c8.47,3.34,17.12,6.08,26.07,7.75c4.23,0.33,8.45,0.38,12.68,0.1c4.82-0.98,9.5-2.37,14.12-4.08c18.35-8.51,35.32-20.4,51.69-32.1
	c19.68-14.07,39.24-28.3,58.7-42.66c17.14-12.66,34.2-25.42,51.2-38.28c8.64-6.54,17.27-13.11,25.88-19.69
	c4.31-3.29,8.61-6.59,12.91-9.9c2.01-1.54,4.01-3.09,6.01-4.63c0.44-0.34,0.87-0.67,1.3-1.01c33.83-26.33,67.59-52.76,101.11-79.48
	c52.44-41.81,104.5-84.08,156.54-126.39c-0.02-0.01-0.03-0.02-0.05-0.03c-4.48-2.23-9.14-4.16-13.6-5.94
	c-1.17-0.47-2.35-0.93-3.53-1.38c-1.89-0.55-3.79-1.02-5.66-1.41c-27.76-5.67-55.6-0.2-83.4,2.26c-29.75,2.63-59.57,4.4-89.41,5.49
	c-60.47,2.21-121,1.65-181.47-0.15c-120.52-3.59-240.88-12.07-361.47-13.46c-60.42-0.7-120.89,0.4-181.17,4.83
	c-15.24,1.12-30.47,2.45-45.67,4.02c-9.22,0.95-18.52,1.81-27.76,3.02C115.72,299.08,119.93,303.63,124.09,308.27z"/>
<path d="M9.23,1128.42c1.24,3.77,2.87,7.4,4.82,10.88c21.37-23.58,42.76-47.15,64.18-70.69c66-72.55,132.17-144.95,198.35-217.33
	c60.06-65.67,120.11-131.34,180.08-197.09c-1.81-1.11-3.63-2.2-5.44-3.31c-77.57-47.89-150.37-102.98-222.54-158.53
	c-37.02-28.5-75.23-55.68-108.69-88.45c-15.67-15.35-30.01-31.97-44.65-48.27c-7.24-8.06-14.57-16.05-22.24-23.7
	c-0.26-0.26-0.52-0.5-0.78-0.76c-5.61,6.92-10.46,14.44-14.35,22.48c-0.28,0.59-0.56,1.18-0.83,1.77
	c-3.2,25.72-4.11,51.69-3.16,77.69c0.05,1.24-0.18,2.28-0.61,3.15C33,445.48,32.13,454.7,31,463.9
	c-3.18,22.43-7.17,44.74-10.02,67.23c-2.74,21.59-3.98,43.34-4.29,65.1c-0.63,44.01,2.51,87.95,4.6,131.88
	c4.21,88.35,3.88,176.92-1.01,265.24C17.78,1038.45,14.08,1083.5,9.23,1128.42z"/>
<path d="M881.32,728.9c49.03,77.76,99.09,154.88,150.11,231.35c39.55,59.27,79.69,118.15,120.37,176.66
	c0.17-9.61,0.24-19.23,0.24-28.86c-1.9-35.3-7.89-70.46-12.75-105.44c-3.76-29.04-5.98-58.07-5.77-87.39
	c0.22-30.32,2.01-60.63,3.65-90.91c3.36-61.75,7.46-123.46,10.01-185.26c2.53-61.27,3.55-122.66,0.78-183.94
	c-1.38-30.52-3.55-61.07-7.26-91.4c-0.32-2.59-0.67-5.15-1.06-7.66c-63.99,52.01-128.06,103.91-192.87,154.9
	c-38.93,30.63-78.11,60.96-117.65,90.8c-6.08,4.59-12.16,9.19-18.25,13.79C834.13,653.48,857.6,691.27,881.32,728.9z"/>
<path d="M1040.45,1094.88c-51.87-75.93-102.81-152.49-152.74-229.71C843.04,796.1,799.19,726.5,756.17,656.4
	c-13.97,10.19-28.06,20.21-42.33,29.91c-19.23,13.06-39.6,25.74-61.94,32.71c-24.72,7.7-51.97,5.5-76.2-2.92
	c-20.37-7.08-39.75-16.94-58.72-27.19c-35.05,38.44-70.13,76.85-105.22,115.24c-66.12,72.33-132.29,144.62-198.35,217
	c-49.29,54-98.52,108.06-147.63,162.23c4.77,2.38,9.54,4.52,14.17,6.41c8.71-0.07,17.58-1.3,26.06-1.98
	c62.74-5.05,125.51-9.61,188.32-13.69c62.81-4.07,125.65-7.65,188.51-10.75c62.5-3.07,125.06-6.12,187.64-6.88
	c69.27-0.84,138.4,1.91,207.12,10.93c75.51,10.44,151.43,25.16,227.9,21.61C1083.64,1157.75,1061.96,1126.37,1040.45,1094.88z"/>
<path class="st1" d="M1240.01,1230.3c-0.65,1.38-1.31,2.76-1.96,4.14c-0.2,0.67-0.5,1.29-0.87,1.83c-0.5,1.06-1.01,2.13-1.51,3.19
	c0.34-0.02,0.68-0.02,1.03-0.05c0.84-0.06,1.66-0.15,2.47-0.25c0.31-2.92,0.6-5.85,0.87-8.78
	C1240.02,1230.37,1240.02,1230.34,1240.01,1230.3z"/>
<path class="st1" d="M1145.13,333.08c2.3-1.95,4.62-3.9,6.92-5.85c-0.39-0.75-0.75-1.51-1.09-2.28
	C1149.01,327.65,1147.07,330.36,1145.13,333.08z"/>
</svg>
