<?xml version="1.0" encoding="utf-8"?>
<!-- Generator: Adobe Illustrator 25.2.1, SVG Export Plug-In . SVG Version: 6.00 Build 0)  -->
<svg version="1.1" id="Layer_1" xmlns="http://www.w3.org/2000/svg" xmlns:xlink="http://www.w3.org/1999/xlink" x="0px" y="0px"
	 viewBox="0 0 1200 1200" style="enable-background:new 0 0 1200 1200;" xml:space="preserve">
<style type="text/css">
	.st0{fill:#EAA221;}
</style>
<path d="M1075.82,183.27c-11.67-14.45-26.38-26.25-44.33-33.47c-16.44-6.62-33.26-10.63-51.06-11.57c-20-3.01-40.71-2.86-60.53-0.73
	c-18.57,2-36.92,4.94-54.94,9.6c-18.24,4.72-35.8,11.05-53.2,17.96c-63.41,25.2-119.27,63.94-173.06,103.5
	c-52.24,38.42-102.18,79.53-149.56,123.06c-23.34,21.44-46.05,43.47-68.11,66.05c-41.81,37.64-82.51,76.37-120.83,117.12
	c-47.01,49.99-91.48,103.05-128.22,160.11c-18.59,28.87-34.86,59.6-45.31,91.9c-5.79,17.89-9.82,36.66-11.19,55.52
	c-7.41,24.34-9.96,51.07-1.82,75.36c0.51,1.53,1.07,3.05,1.66,4.56c0,0.1-0.01,0.2-0.01,0.3c-0.08,10.31,3.8,19.6,9.2,28.43
	c6.36,10.4,14.88,20.29,24.57,28.18c7.27,5.92,14.99,11,23.1,15.29c8.3,7.13,17.82,12.78,28.57,17.06c4.28,2.36,8.7,4.51,13.26,6.42
	c8.13,3.39,15.82,5.31,24.75,3.02c1.55-0.4,3.13-0.96,4.7-1.63c22.32,0.05,45.12-4.95,65.59-10.96
	c34.63-10.16,68.07-24.34,99.73-40.83c61.82-32.2,118.6-73.01,173.83-114.08c53.24-39.6,104.47-81.54,153.47-125.63
	s95.78-90.32,140.12-138.5c46-49.98,90.19-101.9,130.24-156.16c41.52-56.25,75.53-118.59,86.85-186.68
	C1099.06,251.72,1099.66,212.79,1075.82,183.27z"/>
<path d="M1170.59,442.52c-4.88-26.82-4.61-61.79-34.01-75.34c-36.09-17.12-73.94,9.31-84.64,43.19
	c-41.33,111.94-131.3,198.85-206.88,290.35c-130.5,152.42-300.58,273.8-493.56,342.84c-16.39,4.55-27.42,21.78-22.37,37.83
	c2.53,6.33,6.98,11.78,8.27,18.7c17.72,44.75,74.98,45.73,117.16,50.87c177.54,10.23,354.11-71.47,478.13-190.19
	c65.67-65.96,115.59-144.54,160.7-224.39C1152.03,634.13,1195.9,564.16,1170.59,442.52z"/>
<path d="M860.46,100.21c-16.24-48.03-72.24-53.39-115.89-57.18c-44.93-3.9-89.93-1.55-134.42,5.44
	c-44.47,6.99-87.28,20.11-128.49,37.88c-40.62,17.51-78.37,40.78-114.1,66.51c-68.99,49.67-132.72,106.72-185.87,172.83
	c-55.43,68.94-99.62,145.74-126.92,229.72c-13.67,42.03-22.44,85.43-26.73,129.35c-4.17,42.7-3.78,88.02,10.81,128.93
	c4.03,11.3,8.91,22.42,14.84,32.89c6.03,10.66,18.5,15.84,30.26,14.29c6.64,0.79,13.6-0.08,19.32-3.72
	c6.25-3.97,12.68-10.34,13.96-17.89c0.45-2.65,0.92-5.29,1.41-7.92c1.01-1.8,1.89-3.72,2.62-5.76
	c6.07-17.07,12.66-33.94,19.71-50.64c27.17-62.63,61.04-122.34,100.3-178.39c10.67-15.24,21.76-30.18,33.18-44.88
	c0.43-0.54,0.86-1.08,1.29-1.62c17.42-18.08,34.88-36.13,52.47-54.05c63.77-64.99,129.32-128.58,200.58-185.64
	c2.46-1.97,4.94-3.91,7.41-5.86c16.79-12,33.83-23.67,51.07-35.03c60.47-33.21,124.7-60.01,185.83-92.13
	c25.2-13.24,49.86-27.46,73.44-43.34C857.2,126.81,864.88,113.3,860.46,100.21z"/>
<path class="st0" d="M1024.39,242.28c-2.77-8.05-7.43-15.03-14.94-19.42c-6.97-4.08-17.23-5.8-25.04-3.28
	c-15.9,5.14-28.62,22.77-22.7,39.98c2.1,6.11,3.88,12.32,5.08,18.66c0.03,0.4,0.06,0.8,0.08,1.2c-1.06-0.61-2.11-1.25-3.14-1.93
	c-4.77-4.15-9.16-8.7-13.55-13.27c-7.06-7.36-14.34-13.95-22.53-20.08c-16.57-12.43-38.02-16.94-58.22-13.15
	c-22.87,4.29-40.82,25.37-44.74,47.78c-3.64,20.85-0.35,41.09,7.32,60.66c5.53,14.11,12.35,27.73,15.26,42.63
	c0.25,3.33,0.29,6.65,0.11,9.98c-0.32,1.46-0.68,2.91-1.12,4.34c-0.16,0.29-0.33,0.57-0.49,0.85c-0.15,0.04-0.3,0.09-0.45,0.13
	c-0.92,0.01-1.84,0-2.76-0.03c-2.44-0.55-4.83-1.24-7.19-2.06c-8.31-4.16-15.75-9.65-23.12-15.33c-0.03-0.02-0.05-0.04-0.08-0.06
	c-0.26-0.2-0.52-0.4-0.78-0.6c0.06,0.04,0.12,0.09,0.17,0.13c-13.15-10.1-26.38-19.56-42.57-24.68c-18.6-5.88-38.24-3.93-55.84,3.81
	c-21.01,9.24-31.79,30.21-33.88,52.11c-1.69,17.65,3.45,36.04,9.7,52.39c5.56,14.56,12.1,28.75,15.02,44.1
	c0.28,3.62,0.34,7.25,0.13,10.88c-0.35,1.6-0.76,3.18-1.24,4.74c-0.38,0.7-0.78,1.38-1.19,2.06c-0.4,0.41-0.8,0.82-1.21,1.21
	c-0.51,0.31-1.02,0.61-1.53,0.9c-1.11,0.34-2.24,0.65-3.38,0.91c-2.75,0.13-5.49,0.09-8.24-0.11c-6.59-1.27-13-3.2-19.28-5.59
	c-8.02-3.72-15.64-8.13-23.39-12.43c-11.6-6.43-23.5-12.19-35.92-16.87c-25.37-9.56-56.12-10.1-79.5,5.18
	c-42.12,27.54-48.09,82.37-35.56,127.3c6.63,23.77,17.16,46.39,21.47,70.76c0.27,3.17,0.37,6.32,0.24,9.49
	c-0.13,0.54-0.27,1.09-0.42,1.63c-0.5,0.29-1,0.57-1.51,0.85c-2.07,0.65-4.16,1.19-6.29,1.62c-5.67,0.41-11.35,0.26-17.02-0.27
	c-7.51-1.32-14.84-3.29-21.99-5.95c-7.22-3.42-14.01-7.52-20.73-11.9c-9.6-6.26-19.07-11.58-29.74-15.88
	c-20.39-8.22-45.8-6.27-63.99,6.48c-17.73,12.43-29.59,30.45-35.61,51.18c-5.96,20.52-4.67,41.4-0.04,62.02
	c3.96,17.64,10.5,34.59,14.67,52.15c-9.49,0.19-18.99-0.28-28.44-1.33c-34.81-5.59-75.5-19.25-103.18,11.15
	c-17.52,19.24-19.02,46.31-13.13,70.54c4.79,19.67,16,38.64,30.91,52.32c12.52,11.5,33.74,13.31,45.96,0
	c11.49-12.52,13.37-33.68,0-45.96c-2.2-2.02-4.27-4.15-6.23-6.39c-2.11-3.11-4-6.34-5.67-9.71c-1.25-3.56-2.25-7.18-2.99-10.88
	c-0.1-1.44-0.16-2.89-0.17-4.33c2.98-0.03,5.97,0.13,8.95,0.42c13.84,2.23,27.46,5.54,41.41,7.36c15.83,2.06,31.82,2.48,47.72,0.96
	c12.45-1.19,23.78-2.96,33.95-10.82c12.04-9.3,17.66-22.49,18.22-37.55c0.34-9.23-1.59-18.82-3.41-27.83
	c-1.47-7.25-3.45-14.38-5.57-21.47c-4.34-14.48-9.22-28.83-11.82-43.73c-0.35-4.22-0.4-8.4-0.1-12.61c0.75-3.84,1.77-7.6,3.07-11.29
	c1.17-2.33,2.46-4.58,3.88-6.76c0.89-0.97,1.82-1.91,2.78-2.81c0.46-0.28,0.93-0.56,1.4-0.82c0.25-0.07,0.5-0.13,0.75-0.19
	c0.48-0.01,0.96-0.01,1.45,0.01c1.47,0.36,2.93,0.79,4.37,1.27c6.91,3.46,13.35,7.75,19.84,11.96
	c10.26,6.65,20.85,11.89,32.24,16.39c21.09,8.32,44.81,11.27,67.24,8.26c27.81-3.74,51.78-19.52,60.91-46.99
	c7.73-23.28,1.72-50.02-5.43-72.69c-6.35-20.13-14.97-39.81-18.69-60.68c-0.54-6.01-0.56-12.02-0.05-18.03
	c0.79-4.18,1.86-8.28,3.25-12.3c1.05-2.08,2.2-4.11,3.47-6.07c0.95-1.04,1.93-2.03,2.95-2.99c0.95-0.6,1.92-1.17,2.91-1.71
	c1.39-0.44,2.8-0.84,4.23-1.17c2.18-0.09,4.35-0.07,6.53,0.07c5.54,1.13,10.92,2.8,16.21,4.82c16.02,7.4,30.75,17.29,47,24.2
	c21.02,8.95,42.53,14.79,65.54,11.7c23.7-3.18,45.89-17.78,55.91-39.98c10.17-22.54,10.31-47.21,3.84-70.9
	c-5.58-20.44-16.38-39.07-20.45-59.94c-0.12-1.56-0.18-3.12-0.19-4.69c1.15-0.03,2.29-0.02,3.44,0.03c1.58,0.36,3.15,0.76,4.69,1.26
	c8.5,4.27,16.17,9.92,23.72,15.74c-0.96-0.74-1.91-1.48-2.87-2.22c14.92,11.51,29.49,22.27,48.01,27.82
	c12.21,3.66,24.23,3.9,36.69,2.07c11.68-1.72,21.6-7.53,30.64-14.79c27.61-22.17,28.73-65.49,17.58-96.29
	c-5.97-16.5-14.43-32.2-17.91-49.48c-0.1-1.56-0.15-3.11-0.14-4.67c1.38,0.76,2.74,1.57,4.06,2.44
	c12.81,10.97,23.23,24.31,37.16,34.18c17.01,12.06,40.94,17.8,61.16,11.35c13.09-4.17,23.46-12.37,31.28-23.53
	c6.57-9.38,8.99-20.24,10.12-31.4C1033.23,273.28,1029.44,256.93,1024.39,242.28z"/>
</svg>
