<?xml version="1.0" encoding="utf-8"?>
<!-- Generator: Adobe Illustrator 25.2.1, SVG Export Plug-In . SVG Version: 6.00 Build 0)  -->
<svg version="1.1" id="Layer_1" xmlns="http://www.w3.org/2000/svg" xmlns:xlink="http://www.w3.org/1999/xlink" x="0px" y="0px"
	 viewBox="0 0 1200 1200" style="enable-background:new 0 0 1200 1200;" xml:space="preserve">
<style type="text/css">
	.st0{fill:#FFFFFF;}
</style>
<path d="M1158.65,1115.78c-6.19-36.21-11.76-72.52-16.73-108.91c-16.09-120.96-25.4-242.81-27.72-364.81
	c-0.67-34.92-0.75-69.85-0.29-104.77c0.05-3.45-0.53-6.88-1.61-10.15c0.02-8.45-2.98-16.78-9.78-22.84
	c-31.96-28.48-63.92-56.96-95.88-85.45c0.22-1.52,0.34-3.08,0.34-4.66c0.24-50.98,0.48-101.96,0.72-152.93
	c0.12-25.16,0.24-50.32,0.35-75.47c0.07-15.9,2.93-35.67-5.24-49.91c-7.56-13.18-20.74-19.22-35.48-19.92
	c-6.53-0.31-13.15-0.03-19.68-0.03c-28.87-0.02-57.75-0.05-86.62-0.07c-8.33-0.01-18.3,3.71-24.04,9.96
	c-6.36,6.93-9.24,14.63-9.96,24.04c-2.62,34.45-4.68,68.93-6.18,103.44L670.62,119.4C629.91,83.12,589.2,46.85,548.49,10.57
	c-6.75-6.02-14.8-9.96-24.04-9.96c-8.34,0-18.3,3.7-24.04,9.96c-2.33,2.53-4.28,5.44-5.82,8.56c-3.08,1.57-5.9,3.73-8.31,6.57
	C433.86,87.5,381.43,149.29,329,211.09S224.15,334.68,171.73,396.48c-13.11,15.45-26.21,30.9-39.32,46.35
	c-13.06,15.39-28.95,30.78-37.33,49.35c-5.98,13.25-8.58,25.76-9.87,40.28c-0.86,9.72-1.04,19.52-1.48,29.27
	c-0.9,20.12-1.79,40.25-2.69,60.37c-3.58,80.59-7.41,161.17-10.57,241.78c-3.16,80.71-5.34,161.49-4.31,242.27
	c0.13,10.1,0.31,20.19,0.54,30.29c0.43,18.76,15.24,33.48,34,34c134.55,3.74,269.21,7.48,403.8,3.24
	c133.27-4.2,265.95-18.99,399.23-22.88c74.12-2.16,148.43-0.72,222.12,8.03c10.29,1.22,20.79-5.74,26.7-13.4
	C1159.6,1136.31,1160.54,1126.87,1158.65,1115.78z"/>
<path class="st0" d="M730.77,1143.16c-0.9-14.25-1.81-28.5-2.71-42.75c-1.79-28.17-3.57-56.34-5.36-84.51
	c-3.99-62.97-7.99-125.93-11.98-188.9c-0.49-7.71-2.52-14.41-7.3-20.6c-4.11-5.32-10.75-11.09-17.66-12.18
	c-60.83-9.61-122.24-7.67-182.08,7.44c-15.24,3.85-23.96,17.97-24.96,32.79c-5.81,86.1-10.5,172.27-14.04,258.49
	c-1.01,24.54-1.92,49.08-2.75,73.63c-0.6,17.79,16.07,34.8,34,34c10.32-0.46,19.3-4.87,25.44-11.86
	c13.16,8.19,29.73,10.89,44.85,11.63c13.06,0.64,26.23-0.71,39.26-1.5c27.6-1.66,55.21-3.23,82.81-4.98
	c5.1-0.33,10.29-0.68,15.19-2.13c9.46-2.81,16.98-9.12,22.26-17.33C731.9,1164.83,731.45,1153.86,730.77,1143.16z"/>
<path class="st0" d="M980.77,684.95c-2.11-32.45-4.22-64.89-6.34-97.34c-1.2-18.38-14.61-33.95-34-34
	c-33.48-0.08-66.94,1.52-100.26,4.79c-8.74,0.86-17.58,3.07-23.87,9.78c-12.69,5.01-22.31,16.75-21.97,31.42
	c0.66,29.07,1.33,58.14,1.99,87.2c0.36,16-0.37,32.46,2.35,48.28c1.61,9.35,6.54,17.82,13.21,24.46
	c8.21,8.17,18.95,11.21,29.97,12.86c32.67,4.92,64.23,4.84,96.87-0.48c11.18-1.82,21.86-4.44,30.42-12.63
	c9.33-8.93,13.41-20.5,14.02-33.17C983.82,712.59,981.65,698.48,980.77,684.95z"/>
<path class="st0" d="M384.77,684.95c-2.11-32.45-4.22-64.89-6.34-97.34c-1.2-18.38-14.61-33.95-34-34
	c-33.48-0.08-66.94,1.52-100.26,4.79c-8.74,0.86-17.58,3.07-23.87,9.78c-12.69,5.01-22.31,16.75-21.97,31.42
	c0.66,29.07,1.33,58.14,1.99,87.2c0.36,16-0.37,32.46,2.35,48.28c1.61,9.35,6.54,17.82,13.21,24.46
	c8.21,8.17,18.95,11.21,29.97,12.86c32.67,4.92,64.23,4.84,96.87-0.48c11.18-1.82,21.86-4.44,30.42-12.63
	c9.33-8.93,13.41-20.5,14.02-33.17C387.82,712.59,385.65,698.48,384.77,684.95z"/>
</svg>
