<?xml version="1.0" encoding="utf-8"?>
<!-- Generator: Adobe Illustrator 25.2.1, SVG Export Plug-In . SVG Version: 6.00 Build 0)  -->
<svg version="1.1" id="Layer_1" xmlns="http://www.w3.org/2000/svg" xmlns:xlink="http://www.w3.org/1999/xlink" x="0px" y="0px"
	 viewBox="0 0 1200 1200" style="enable-background:new 0 0 1200 1200;" xml:space="preserve">
<g>
	<path d="M592.67,656.85c-0.4-0.13-0.96-0.26-1.68-0.35c0.02,0.01,0.03,0.02,0.05,0.03C591.57,656.6,592.12,656.71,592.67,656.85z"
		/>
	<path d="M1190.54,245.91c-2.51-11.53-6.05-22.95-10.47-34.03c-1.1-4.87-2.35-9.71-3.8-14.48c-0.72-2.34-1.48-4.67-2.29-6.98
		c-0.33-0.92-0.67-1.84-1-2.76c-0.01-0.03-0.03-0.08-0.05-0.14c-0.2-0.52-0.48-1.23-0.59-1.48c-0.38-0.91-0.77-1.81-1.17-2.7
		c-0.8-1.8-1.64-3.58-2.51-5.35c-3.41-6.88-7.3-13.46-11.02-20.15c-3.96-7.12-7.67-14.6-10.42-22.39
		c-3.12-4.14-6.36-8.21-9.75-12.18c-37.98-44.63-89.2-73.03-140.01-97.69c-0.08-0.04-0.15-0.07-0.23-0.11
		c-0.28-0.06-0.55-0.12-0.83-0.2c-9.05-2.41-18.12-4.78-27.3-6.65c-2.45-0.5-4.91-0.97-7.38-1.39c-1.23-0.21-2.46-0.4-3.7-0.59
		c-0.09-0.01-0.39-0.05-0.72-0.09c-0.72-0.07-1.8-0.18-2.01-0.2c-0.92-0.09-1.85-0.18-2.77-0.25c-2.46-0.2-4.92-0.33-7.38-0.39
		c-4.29-0.1-8.56,0.1-12.84,0.43c-0.36,0.03-0.64,0.05-0.85,0.06c-0.21,0.05-0.48,0.1-0.83,0.17c-1.81,0.35-3.62,0.68-5.41,1.13
		c-1.14,0.29-2.22,0.65-3.34,0.99c-0.03,0.01-0.09,0.03-0.15,0.05c-0.59,0.24-1.48,0.6-1.77,0.74c-0.77,0.36-1.54,0.74-2.31,1.12
		c-3.13,1.57-6.17,3.31-9.16,5.14c-0.81,0.5-1.61,1.03-2.41,1.54c-16.77,14.5-32.94,29.77-48.29,46
		c-23.67,25.03-45.22,52.09-65.2,80.49c-10.69,15.2-20.11,30.65-26.11,48.68c-7.23,21.74-5.33,45.57,5.1,65.74
		c7.62,14.75,19.17,28.12,30.77,39.52c11.24,11.05,23.6,20.92,36.19,30.16c2.41,1.77,4.85,3.51,7.29,5.24
		c3.94,4.25,7.87,8.51,11.81,12.75c7.91,8.51,15.77,17.09,23.85,25.42c6.64,6.84,13.03,14.41,16.17,23.67
		c0.78,0.8,1.53,1.62,2.24,2.49c3.03,3.74,4.85,6.91,6.53,11.54c-2.06-5.68,0.8,1.89,1.03,2.49c0.14,0.37,0.26,0.74,0.39,1.11
		c-0.35,1.72-0.78,3.44-1.07,4.98c-1.9,9.98-4.68,19.76-8.38,29.22c-0.28,0.66-0.93,2.21-1.08,2.56c-0.84,1.84-1.7,3.67-2.6,5.49
		c-2.24,4.54-4.65,9-7.19,13.38c-3.23,5.57-6.7,11-10.29,16.33c-4.39,4.73-8.78,9.45-13.16,14.19c-6.3,6.81-12.62,13.72-18.57,20.91
		c-34.01,31.06-68.61,61.48-103.79,91.22c-1.31,0.76-2.61,1.53-3.93,2.28c-9.3,5.31-18.77,10.34-28.42,15.01
		c-4.36,2.11-8.75,4.15-13.17,6.1c-1.2,0.53-2.41,1.05-3.61,1.58c-2.63,1.07-5.26,2.15-7.91,3.17
		c-18.9,7.34-38.37,13.26-58.22,17.41c-4.34-1.01-8.66-2.07-12.98-3.16c-3.85-0.97-7.7-1.94-11.53-2.99
		c-2.89-0.79-6.19-2.45-9.27-3.24c1.42,0.48,0.93,1.03-0.75,0.13c-0.29-0.15-0.58-0.3-0.88-0.45c-0.18-0.02-0.36-0.06-0.53-0.08
		c0.17,0.01,0.32,0.03,0.48,0.05c-0.45-0.23-0.9-0.46-1.34-0.7c-0.37-0.2-2.16-1.26-3.47-2.09c-0.64-0.58-1.3-1.13-1.93-1.73
		c-1.59-1.5-3.09-3.08-4.54-4.71c-1.15-1.29-2.19-2.9-3.41-4.12c-0.1-0.14-0.21-0.27-0.31-0.41c-2.57-3.49-5.06-7.04-7.61-10.55
		c-9.15-12.59-18.67-24.94-28.53-37.01c-1.06-1.74-2.12-3.47-3.2-5.2c-1.13-1.21-2.26-2.42-3.4-3.62c-2.05-2.17-4.12-4.33-6.18-6.49
		c-8.82-10.39-17.94-20.69-28.48-29.31c-0.31-0.26-0.63-0.5-0.95-0.76c-2.92-2.9-5.84-5.79-8.78-8.67
		c-1.67-2.06-3.38-4.07-5.16-5.99c-10.35-11.19-23.4-18.73-37.55-22.04c-4.72-1.89-9.73-3.12-15.25-3.63
		c-7.74-0.71-15.84,1.27-23.16,4.69c-28.45,7.75-51.65,29.34-74.3,49.3c-14.75,12.99-29.56,25.91-44.24,38.99
		c-13.72,12.23-27.43,26.36-34.73,44.06c-2.27,5.52-4.14,11.26-3.96,17.2c-0.15,0.34-0.31,0.67-0.46,1
		c-0.63,1.43-1.24,2.87-1.85,4.31c-0.17,0.41-0.34,0.82-0.51,1.24c0,0.01-0.01,0.02-0.01,0.04c-0.28,0.78-0.55,1.57-0.83,2.35
		c-0.3,1.32-0.58,2.64-0.85,3.96c-0.55,2.73-1.04,5.47-1.46,8.22c-0.05,0.31-0.17,0.95-0.29,1.55c-0.13,1.02-0.19,2.06-0.28,3.06
		c-0.58,6-0.84,12.04-0.77,18.07c0.05,3.71,0.03,7.69,0.36,11.54c0.25,1.24,0.5,2.48,0.77,3.72c1.62,7.41,3.61,14.73,5.94,21.92
		c1.17,3.61,2.43,7.18,3.76,10.72c0.17,0.46,0.34,0.94,0.52,1.41c0.07,0.14,0.13,0.27,0.18,0.38c0.69,1.62,1.37,3.25,2.07,4.87
		c3.07,7.1,6.32,14.09,9.89,20.92c7.04,13.49,15.06,26.38,23.66,38.79c1.17,1.69,2.36,3.37,3.55,5.05c0.43,0.61,0.87,1.21,1.31,1.82
		c2.14,2.88,4.28,5.76,6.45,8.61c1.05,1.38,2.12,2.74,3.19,4.1c-0.01,0.01-0.01,0.01-0.02,0.01c-13.04,9.3-24.3,21.65-32.87,35.85
		c-5.04-0.49-10.1-0.79-15.21-0.74c-10.78,0.09-21.51,1.54-32.14,3.41c-22.81,4-44.82,13.8-64.32,27.61
		c-5.41-3.98-10.94-7.73-16.59-11.14c-19.36-11.71-39.77-18.55-61.88-20.09c-20.09-1.4-39.83,2.56-58.3,10.33
		c-8.68-17.22-19.27-33.77-31.84-47.88c-14.4-16.16-31.63-27.94-51.1-35.44c-7.82-3.01-18.79-0.76-25.74,3.65
		c-6.93,4.39-13.54,13-15.35,21.63c-4.27,20.3,5.68,37.72,23.33,44.53c0.27,0.1,0.53,0.21,0.79,0.32c4.32,2.3,8.42,4.95,12.36,7.93
		c5.81,5.36,11.06,11.32,15.9,17.7c5.65,8.44,10.67,17.35,15.21,26.55c-23.9,25.3-39.9,60.43-46.67,95.37
		c-4.01,20.7-5.87,42.19-4.65,63.33c1.36,23.59,4.31,49.29,20.92,66.59c12.32,12.84,30.38,17.71,46.69,11.85
		c12.34-4.43,22.91-13.98,31.79-24.05c14.87-16.85,25.15-36.52,32.74-58.19c14.09-40.26,12.23-86.28,1.36-127.18
		c5.26-1.84,10.62-3.3,16.07-4.36c6.26-0.6,12.52-0.64,18.78-0.08c5.85,1.18,11.55,2.91,17.14,5.15c3.21,1.65,6.36,3.43,9.45,5.32
		c-14.7,22.44-25.4,48.36-29.5,75.14c-6.24,40.78-1.67,86.06,21.74,120.13c13.52,19.68,31.83,38.72,54.89,43.69
		c9.36,2.02,17.75,2.34,27.1,0.01c9.28-2.32,16.82-7.59,24.05-14.02c7.99-7.1,14.37-16.62,20.14-25.81
		c9.88-15.73,17.04-34.45,20.74-53.04c4.5-22.58,4.59-44.08,1.5-66.79c-4.16-30.53-18.15-57.98-36.8-80.94
		c8.85-3.59,17.96-6.21,27.27-7.92c2.27-0.25,4.54-0.45,6.82-0.6c-0.42,2.88-0.79,5.79-1.14,8.72c-5.2,44.03,2.13,90.8,29.67,125.04
		c12.23,15.21,30.45,26.51,48.4,31.49c21.18,5.87,42.59,3.67,62.22-6.63c19.82-10.4,34.01-32.33,39.9-54.87
		c5.61-21.45,4.49-45.73-3.32-66.35c-3.97-10.49-8.89-20.36-14.75-29.54c-0.95-0.77-1.53-1.72-1.79-2.73
		c-5.79-8.66-12.43-16.67-19.94-23.93c-12.58-12.17-26.55-22.93-41.72-31.01c1.88-0.67,3.79-1.27,5.71-1.77
		c0.64,0.72,1.27,1.43,1.91,2.15c8.2,5.55,16.57,10.9,25.1,16c12.16,10.33,24.44,20.57,36.96,30.44c0.04,0.01,0.09,0.02,0.13,0.04
		c18.03,6.29,36.92,8.2,55.93,8.12c19.73-0.09,39.78-0.83,59.62-2.91c16.73-2.68,33.39-5.73,49.99-9.11
		c18.24-6.39,36.26-13.45,54.2-20.61c25.22-10.07,50.64-19.6,76.11-29c29.89-17.26,59.51-34.97,88.65-53.46
		c26.5-16.81,52.6-34.25,78.1-52.55c6.31-4.53,12.58-9.1,18.8-13.74c3.24-2.41,6.47-4.83,9.68-7.27c1.48-1.13,2.97-2.25,4.45-3.39
		c0.49-0.37,2.57-1.98,3.19-2.45c0.56-0.44,1.27-0.99,1.41-1.1c0.73-0.57,1.47-1.15,2.2-1.72c1.42-1.11,2.83-2.22,4.23-3.35
		c2.6-2.09,5.17-4.21,7.74-6.34c5.36-4.42,10.67-8.9,15.94-13.44c24.11-20.75,47.26-42.66,69.09-65.81
		c10.35-13.79,20.43-27.78,30.21-41.98c22.84-33.16,44.11-67.39,63.72-102.56c19.73-35.39,37.79-71.72,54.05-108.84
		c1.85-4.22,3.7-8.45,5.48-12.7c0.56-1.74,1.12-3.48,1.68-5.21c0.1-0.52,0.19-1.05,0.29-1.57c10.98-21.26,18.59-44.23,22.04-67.56
		C1196.88,300.23,1196.47,273.18,1190.54,245.91z M-9.65,1033.57c-1.53,9.64-3.87,19.06-7.07,28.2c-0.29,0.66-0.59,1.31-0.88,1.96
		c0.16-4.95,0.5-9.91,0.99-14.85c1.68-11.03,4.23-21.85,7.69-32.37C-8.9,1022.21-9.13,1027.89-9.65,1033.57z M186.44,1080.5
		c-1.36,8.43-3.42,16.67-6.2,24.68c-2.93,6.71-6.37,13.1-10.34,19.15c-0.34,0.43-0.68,0.86-1.02,1.29
		c-0.62-0.42-1.23-0.85-1.84-1.29c-2.93-2.79-5.66-5.77-8.21-8.96c-2.92-4.58-5.46-9.39-7.69-14.41
		c-2.44-7.16-4.25-14.52-5.47-22.04c-0.71-8.55-0.68-17.11,0.07-25.65c1.57-9.81,4.03-19.38,7.3-28.68
		c3-7.05,6.45-13.83,10.32-20.33c2.27,2.63,4.45,5.34,6.58,8.13c4.11,6.24,7.75,12.78,10.8,19.69c2.57,7.46,4.47,15.13,5.74,22.97
		C187.19,1063.51,187.17,1072.01,186.44,1080.5z M353.77,996.27c2.94,4.53,5.56,9.26,7.82,14.23c1.08,3.32,1.96,6.69,2.64,10.14
		c0.16,2.9,0.17,5.8,0.02,8.7c-0.46,2.34-1.02,4.65-1.7,6.92c-0.72,1.5-1.5,2.96-2.33,4.38c-0.66,0.76-1.33,1.49-2.02,2.2
		c-0.76,0.51-1.54,1.01-2.33,1.47c-1.23,0.41-2.48,0.77-3.74,1.08c-1.99,0.09-3.98,0.08-5.97-0.03c-2.81-0.65-5.57-1.48-8.28-2.49
		c-2.66-1.46-5.23-3.08-7.71-4.87c-1.95-1.89-3.78-3.88-5.51-6c-2.3-3.7-4.35-7.55-6.16-11.56c-2.25-6.7-3.88-13.58-5.02-20.6
		c-1.09-12.36-0.85-24.77,0.37-37.11c7.73,4.22,15.12,9.09,22.14,14.6C342.41,983.08,348.39,989.36,353.77,996.27z"/>
</g>
<path d="M1327.2,1272.19c-0.62-13.82-11.2-25.5-25.5-25.5c-13.34,0-26.12,11.73-25.5,25.5c0.62,13.82,11.2,25.5,25.5,25.5
	C1315.04,1297.69,1327.82,1285.96,1327.2,1272.19z"/>
</svg>
