<?xml version="1.0" encoding="utf-8"?>
<!-- Generator: Adobe Illustrator 25.2.1, SVG Export Plug-In . SVG Version: 6.00 Build 0)  -->
<svg version="1.1" id="Layer_1" xmlns="http://www.w3.org/2000/svg" xmlns:xlink="http://www.w3.org/1999/xlink" x="0px" y="0px"
	 viewBox="0 0 1200 1200" style="enable-background:new 0 0 1200 1200;" xml:space="preserve">
<style type="text/css">
	.st0{fill:none;}
</style>
<path d="M1003.16,932.25c-6.64-115.63-13.27-231.26-19.91-346.89c-3.33-58.07-7.28-116.14-9.54-174.26
	c-2.02-52.01-0.44-103.58,3.11-155.39c-1.07-0.73-2.15-1.46-3.25-2.16c-2.78-1.75-5.65-3.37-8.59-4.85
	c-1.73-0.87-3.49-1.69-5.26-2.48c0.86,0.41-2.78-1.13-3.39-1.36c-3.1-1.17-6.24-2.21-9.41-3.16c-6.24,0.18-12.48,0.37-18.72,0.55
	c-35.8,1.01-71.6,1.97-107.4,3.06c-17.9,0.55-35.8,1.13-53.7,1.76c-10.27,0.36-20.24,1.06-30.35-1.7
	c-14.89-4.06-27.79-15.09-32.16-30.17c-2.65-9.15-2.17-19.86-2.72-29.35c-0.52-8.95-1.06-17.91-1.62-26.86
	c-1.12-17.86-2.33-35.72-3.54-53.57c-2.08-30.67-4.18-61.35-5.99-92.04c-17.47-1.26-34.94-2.52-52.42-3.48
	c-28.29-1.55-56.66-2.32-84.97-1.06c-30.2,1.34-60.2,5.43-90.04,10.12c-25.13,3.95-50.18,8.41-75.37,11.94
	c-33.28,4.23-66.89,6.35-100.3,2.6c-27.46-4.53-58.35-15.6-83.53,1.31c-10.59,7.11-18.54,17.06-22.64,28.79
	c-2.45,3.19-4.26,6.77-4.81,10.58c-4.41,30.59-5.44,60.9-3.3,91.73c1.98,28.47,5.91,56.74,9.41,85.05
	c6.96,56.39,11.24,113.06,13.72,169.81c4.98,113.74,3.09,227.62,3.35,341.43c0.26,114,2.66,228.27,16.32,341.57
	c1.95,16.18,3.62,31.35,11.34,45.99c8.56,16.25,24.84,27.03,42.18,31.92c14.53,4.1,30.28,4.82,45.26,6.41
	c13.76,1.46,27.53,2.72,41.33,3.79c57.36,4.46,114.92,5.74,172.44,5.15c114.9-1.18,229.68-9.17,344.37-15.63
	c14.73-0.83,29.47-1.66,44.2-2.49c15.33-0.86,31.4-0.66,46.42-4.04c16.69-3.76,32.38-15.67,39.81-31.2
	c6.54-13.65,9.1-28.2,9.08-43.31c-0.04-27.23-2.91-54.7-4.47-81.89C1006.46,989.7,1004.81,960.97,1003.16,932.25z"/>
<path d="M767.66,30.73c-0.59,0.68-1.16,1.38-1.73,2.08c-0.09,0.13-0.19,0.28-0.31,0.45c-1.81,2.64-3.56,5.28-5.16,8.04
	c1.3,20.38,2.68,40.75,4.06,61.13c1.19,17.52,2.37,35.04,3.49,52.56c0.37,5.76,0.65,11.54,0.93,17.33c0.17,0.26,0.33,0.53,0.51,0.79
	c0.23,0.27,0.68,0.83,0.84,0.99c1.22,1.25,2.42,2.49,3.73,3.65c-0.38-0.37,0.68,0.37,1.69,1.09c1.79-0.11,3.56-0.21,5.32-0.27
	c10.94-0.37,21.88-0.72,32.82-1.06c51.52-1.6,103.04-2.92,154.56-4.45c1.83-1.67,3.63-3.38,5.41-5.11
	c-0.09-0.19-0.18-0.38-0.27-0.57c-5.91-4.51-11.84-9-17.77-13.48c-59.73-45.06-121.02-88.7-186.52-124.98
	C768.72,29.52,768.18,30.12,767.66,30.73z"/>
<path class="st0" d="M856.81,249.34C902,312,947,376,989.02,441.13"/>
<path class="st0" d="M770.82,135.46c9.94,12.73,19.81,25.51,29.61,38.35"/>
</svg>
