<?xml version="1.0" encoding="utf-8"?>
<!-- Generator: Adobe Illustrator 25.2.1, SVG Export Plug-In . SVG Version: 6.00 Build 0)  -->
<svg version="1.1" id="Layer_1" xmlns="http://www.w3.org/2000/svg" xmlns:xlink="http://www.w3.org/1999/xlink" x="0px" y="0px"
	 viewBox="0 0 1200 1200" style="enable-background:new 0 0 1200 1200;" xml:space="preserve">
<style type="text/css">
	.st0{stroke:#000000;stroke-miterlimit:10;}
	.st1{fill:#FFFFFF;}
</style>
<path class="st0" d="M635.21,1340.39l5.49,1.83L635.21,1340.39z"/>
<path class="st1" d="M1158.66,998.61c-3.76-29.04-5.98-58.07-5.77-87.39c0.22-30.32,2.01-60.63,3.65-90.91
	c3.36-61.75,7.46-123.46,10.01-185.26c2.53-61.27,3.55-122.66,0.78-183.94c-1.38-30.52-3.55-61.07-7.26-91.4
	c-2.48-20.29-6.82-38.21-20.76-54.02c-4.25-4.82-9.56-8.98-15.38-12.36c-4.48-2.23-9.14-4.16-13.6-5.94
	c-1.17-0.47-2.35-0.93-3.53-1.38c-1.89-0.55-3.79-1.02-5.66-1.41c-27.76-5.67-55.6-0.2-83.4,2.26c-29.75,2.63-59.57,4.4-89.41,5.49
	c-60.47,2.21-121,1.65-181.47-0.15c-120.52-3.59-240.88-12.07-361.47-13.46c-60.42-0.7-120.89,0.4-181.17,4.83
	c-15.24,1.12-30.47,2.45-45.67,4.02c-10.94,1.13-21.99,2.12-32.91,3.73c-0.6,0.12-1.2,0.25-1.81,0.37
	c-18.3,8.15-35.22,19.22-49.89,32.74c-6.58,7.66-12.21,16.1-16.61,25.2c-0.28,0.59-0.56,1.18-0.83,1.77
	c-3.2,25.72-4.11,51.69-3.16,77.69c0.05,1.24-0.18,2.28-0.61,3.15c-0.4,9.23-1.26,18.45-2.39,27.65
	c-3.18,22.43-7.17,44.74-10.02,67.23c-2.74,21.59-3.98,43.34-4.29,65.1c-0.63,44.01,2.51,87.95,4.6,131.88
	c4.21,88.35,3.88,176.92-1.01,265.24c-2.49,45.12-6.2,90.16-11.05,135.09c9.7,29.43,42.65,49.91,70.7,61.35
	c8.71-0.07,17.58-1.3,26.06-1.98c62.74-5.05,125.51-9.61,188.32-13.69c62.81-4.07,125.65-7.65,188.51-10.75
	c62.5-3.07,125.06-6.12,187.64-6.88c69.27-0.84,138.4,1.91,207.12,10.93c79.56,11,159.56,26.76,240.19,20.89
	c7.97-0.58,14.87-3.14,20.35-7.29c0.93-0.85,1.89-1.67,2.87-2.46c3.86-3.7,6.82-8.32,8.67-13.73c1.57-8.66,1.96-17.65,2.12-25.84
	c0.2-10.3,0.27-20.62,0.27-30.93C1169.51,1068.75,1163.52,1033.59,1158.66,998.61z"/>
<path class="st1" d="M1240.01,1230.3c-0.65,1.38-1.31,2.76-1.96,4.14c-0.2,0.67-0.5,1.29-0.87,1.83c-0.5,1.06-1.01,2.13-1.51,3.19
	c0.34-0.02,0.68-0.02,1.03-0.05c0.84-0.06,1.66-0.15,2.47-0.25c0.31-2.92,0.6-5.85,0.87-8.78
	C1240.02,1230.37,1240.02,1230.34,1240.01,1230.3z"/>
<path d="M1174.78,1078.36c-0.42-4.63-0.87-9.24-1.32-13.81c-30.22-36.37-60.87-72.37-91.88-108.06
	c-65.01-74.83-131.5-148.35-198.44-221.44c-18.69-20.41-37.43-40.79-56.17-61.15c-16.79-18.24-34.14-36.14-49.58-55.56
	c-4.38-5.9-8.49-11.98-12.24-18.27c30.11-19.85,59.95-40.1,89.5-60.77c80.19-56.09,158.31-115.18,234.23-176.94
	c22.19-18.05,44.17-36.35,65.96-54.88c-1.19-2.29-2.18-4.68-2.91-7.21c-0.16-0.57-0.24-1.12-0.26-1.65
	c-2.5-3.58-5.2-7.02-8.13-10.26c-1.76-1.58-3.58-3.08-5.44-4.5c-7.09-5.41-16.11-9.15-24.36-12.46c-4.88-1.96-9.84-3.72-14.85-5.33
	c-14.47,12.24-29.02,24.38-43.67,36.41c-18.41,15.12-36.97,30.08-55.65,44.87c-9.21,7.29-18.45,14.53-27.72,21.73
	c-1.84,1.43-3.68,2.85-5.51,4.27c-1.06,0.82-2.12,1.63-3.18,2.45c-4.93,3.79-9.87,7.57-14.81,11.33
	c-75.56,57.53-153.22,112.32-232.75,164.22c-38.62,25.2-77.7,49.71-117.18,73.55c-64.54-48.4-129.09-96.8-193.63-145.19
	C334.86,427.27,264.93,374.84,195,322.4c-21.16-15.86-42.31-31.73-63.47-47.59c-1.42,0.32-2.84,0.61-4.28,0.9
	c-18.3,8.15-35.22,19.22-49.89,32.74c-1.77,2.07-3.47,4.19-5.1,6.37c59.79,44.83,119.58,89.66,179.36,134.49
	c69.93,52.44,139.86,104.87,209.79,157.31c2.26,1.69,4.52,3.39,6.78,5.08c-65.47,69.3-130.8,138.74-194.16,209.97
	c-67.76,76.17-131.09,156.05-198.29,232.68c-14.76,16.84-29.8,33.42-44.98,49.89c5.44,22.06,23.93,39.37,44.58,51.89
	c12.19-13.18,24.29-26.44,36.24-39.83c33.91-38.04,66.43-77.27,99.02-116.43c65.24-78.38,132.63-154.73,201.95-229.52
	c36.55-39.43,73.44-78.53,110.35-117.62c18.81,14.11,37.63,28.21,56.44,42.32c9.36,7.02,24.81,5.67,34.32,0
	c31.71-18.9,63.14-38.24,94.31-58.02c0.46,0.75,0.92,1.52,1.39,2.26c7.39,11.58,15.92,22.49,24.7,33.05
	c15.47,18.62,32.35,36.09,48.74,53.9c34.44,37.41,68.82,74.88,103.01,112.52c68.8,75.74,136.85,152.18,202.99,230.26
	c25.14,29.68,50.14,59.52,74.66,89.75c2.15-1.76,4.42-3.39,6.76-4.88c3.45-11.23,4.08-23.8,4.29-34.91
	C1174.78,1105.45,1174.81,1091.91,1174.78,1078.36z"/>
</svg>
