<?xml version="1.0" encoding="utf-8"?>
<!-- Generator: Adobe Illustrator 25.2.1, SVG Export Plug-In . SVG Version: 6.00 Build 0)  -->
<svg version="1.1" id="Layer_1" xmlns="http://www.w3.org/2000/svg" xmlns:xlink="http://www.w3.org/1999/xlink" x="0px" y="0px"
	 viewBox="0 0 1200 1200" style="enable-background:new 0 0 1200 1200;" xml:space="preserve">
<style type="text/css">
	.st0{fill:#EAA221;}
	.st1{fill:#FFFFFF;}
</style>
<path class="st0" d="M946.68,592.6c-0.13,0.67-0.26,1.35-0.4,2.02c0.74,0.6,1.43,1.25,2.07,1.96c-0.24-1.98-0.47-3.96-0.72-5.94
	c-0.2-0.5-0.38-1-0.56-1.51l0,0C947.03,590.31,946.91,591.47,946.68,592.6z"/>
<path class="st0" d="M1158.65,1115.78c-6.19-36.21-11.76-72.52-16.73-108.91c-16.09-120.96-25.4-242.81-27.72-364.81
	c-0.67-34.92-0.75-69.85-0.29-104.77c0.05-3.45-0.53-6.88-1.61-10.15c0.02-8.45-2.98-16.78-9.78-22.84
	c-31.96-28.48-63.92-56.96-95.88-85.45c0.22-1.52,0.34-3.08,0.34-4.66c0.24-50.98,0.48-101.96,0.72-152.93
	c0.12-25.16,0.24-50.32,0.35-75.47c0.07-15.9,2.93-35.67-5.24-49.91c-7.56-13.18-20.74-19.22-35.48-19.92
	c-6.53-0.31-13.15-0.03-19.68-0.03c-28.87-0.02-57.75-0.05-86.62-0.07c-8.33-0.01-18.3,3.71-24.04,9.96
	c-6.36,6.93-9.24,14.63-9.96,24.04c-2.62,34.45-4.68,68.93-6.18,103.44L670.62,119.4C629.91,83.12,589.2,46.85,548.49,10.57
	c-6.75-6.02-14.8-9.96-24.04-9.96c-8.34,0-18.3,3.7-24.04,9.96c-2.33,2.53-4.28,5.44-5.82,8.56c-3.08,1.57-5.9,3.73-8.31,6.57
	C433.86,87.5,381.43,149.29,329,211.09S224.15,334.68,171.73,396.48c-13.11,15.45-26.21,30.9-39.32,46.35
	c-13.06,15.39-28.95,30.78-37.33,49.35c-5.98,13.25-8.58,25.76-9.87,40.28c-0.86,9.72-1.04,19.52-1.48,29.27
	c-0.9,20.12-1.79,40.25-2.69,60.37c-3.58,80.59-7.41,161.17-10.57,241.78c-3.16,80.71-5.34,161.49-4.31,242.27
	c0.13,10.1,0.31,20.19,0.54,30.29c0.43,18.76,15.24,33.48,34,34c119.92,3.33,239.92,6.64,359.89,4.32
	c-3.43-36.48-5.22-73.11-5.35-109.76c-0.13-37.52,1.44-75.04,4.7-112.41c1.65-18.91,3.73-37.79,6.23-56.61
	c0.46-3.5,0.93-7,1.42-10.49c0.12-0.85,0.25-1.71,0.37-2.56c0-0.09,0.02-0.28,0.05-0.63c0.37-4.27,1.06-8.55,1.72-12.79
	c1.04-6.67,2.41-13.29,4.2-19.79c2.54-9.21,5.95-18.25,10.34-26.67c0.2-1.25,0.39-2.51,0.59-3.76c0.78-4.76,4.18-8.4,8.38-10.53
	c8.7-11.56,19.96-20.95,34.28-26.4c9.33-3.55,19.13-4.4,28.94-3.9c6.57-1.23,13.16-2.11,19.61-2.74
	c26.19-2.55,52.11-5.36,78.47-3.53c6.64,0.46,13.26,1,19.89,1.45c6.87,0.47,13.64,1.67,19.62,5.32
	c11.21,6.84,18.23,17.8,21.19,30.42c3.01,12.85,4.23,26.31,5.87,39.39c1.64,13.11,3.01,26.26,4.16,39.43
	c2.3,26.33,3.22,52.71,4.83,79.08c3.29,53.77,6.56,107.54,9.42,161.34c0.55,10.3,1.07,20.6,1.59,30.91
	c54.16-3.75,108.35-7.14,162.63-8.72c74.12-2.16,148.43-0.72,222.12,8.03c10.29,1.22,20.79-5.74,26.7-13.4
	C1159.6,1136.31,1160.54,1126.87,1158.65,1115.78z M389.36,636.86c-0.07,21.03-0.36,42.07-1.43,63.08
	c-0.87,17.18-0.18,35.15-8.72,50.73c-2.05,3.74-4.82,7.42-8.01,10.27c-4.28,3.82-8.09,5.24-12.9,7.72c1.81-0.92-1.24,0.85-2.45,1.36
	c-1.39,0.59-2.76,1.2-4.2,1.66c-2.43,0.77-4.93,1.05-7.45,1.39c-0.24,0.03-0.47,0.05-0.71,0.08c-19.09,8.02-43.92,9.53-58.59,4.96
	c-1.04-0.33-2.07-0.7-3.07-1.11c-3.77,0.43-7.53,0.69-11.28,0.75c-9.88,0.15-20.31-1.61-29.01-6.54
	c-11.27-1.31-21.86-4.85-29.91-14.18c-12.59-14.59-15.97-33.67-16.39-52.4c-0.49-21.41-2.12-42.72-1.44-64.17
	c0.36-11.28,1.29-22.5,2.8-33.68c0.79-5.88,1.22-12.3,2.92-18.01c1.73-5.82,5.61-11.31,9.39-15.95c3.85-4.73,9.33-7.71,15.17-8.72
	c13.3-9.14,29.39-11.94,45.49-11.95c10.39-0.01,20.77,0,31.16,0h17.53c2.59,0,5.2-0.1,7.79,0c-0.35-0.01-3.41,0.54,0.59,0.14
	c2.1-0.21,4.19-0.6,6.29-0.82c10.54-1.07,21.41,0.63,30.76,5.74c10.16,5.55,16.56,14.89,20.65,25.43
	C390.89,599.59,389.41,619.05,389.36,636.86z M992.93,720.92c-0.76,14.8-6.11,30.05-17.83,39.75c-9.83,8.13-21.84,12.52-34.34,14.6
	c-13.85,2.31-27.92,3.04-41.93,3.61c-16.66,0.69-33.2,0.27-49.73-2.01c-2.62-0.36-5.24-0.73-7.84-1.19
	c-0.51-0.09-0.91-0.16-1.23-0.22c-0.22-0.01-0.5-0.03-0.86-0.05c-3.75-0.27-7.71-0.94-11.29-2.15c-7.36-2.49-14.75-6.3-20.22-11.95
	c-5.6-5.77-8.15-14.47-10.53-21.97c-2.21-6.96-3.83-14.09-5.27-21.25c-6.06-30.07-8.22-61.02-5.03-91.57
	c0.55-5.26,1.25-10.51,2.02-15.74c0.27-1.84,0.57-3.68,0.87-5.51c0.64-4.01,0.08-1.16,0.04-0.4c0.5-8.22,1.86-15.92,5.56-23.34
	c1.35-2.72,3-5.02,4.98-7.37c2.13-2.53,0.4-0.32-0.01,0.18c3.35-4.02,5.98-7.36,10.59-10.14c5.1-3.08,10.49-4.61,16.06-4.89
	c10.02-3.17,21.31-3.45,31.73-3.46c15.02-0.01,30.04-0.07,45.06-0.33c14.79-0.26,29.59-1.34,44.36-1.5
	c5.44-0.06,10.81,0.79,15.69,3.28c2.28,1.16,3.89,2.42,5.95,4.03c-1.44-1.12-0.8-0.64,0.32,0.25c0,0,0.01,0,0.01,0.01
	c0,0-0.01,0-0.01-0.01c1.09,0.87,2.64,2.14,3.18,2.71c3.01,3.19,4.75,6.91,6.13,11.03c0.26,0.77,0.51,1.57,0.74,2.36
	c-0.16-0.77-0.1-0.61,0.4,1.44c-0.12-0.48-0.26-0.96-0.4-1.44c0.38,1.8,1.98,8.72,1.95,8.46c1.98,15.07,3.7,30.17,5.19,45.3
	c1.47,14.93,2.71,29.87,3.72,44.84C991.97,690.99,993.69,706.15,992.93,720.92z"/>
<path class="st1" d="M484.29,823.03c0.2-1.25,0.39-2.51,0.59-3.76c0.78-4.76,4.18-8.4,8.38-10.53c1.15-1.53,2.34-3.01,3.58-4.46
	c-11,5.8-17.28,17.73-18.12,30.16c-0.02,0.35-0.05,0.7-0.07,1.05C480.31,831.23,482.18,827.06,484.29,823.03z"/>
<path class="st1" d="M946.68,592.6c-0.13,0.67-0.26,1.35-0.4,2.02c0.74,0.6,1.43,1.25,2.07,1.96c-0.24-1.98-0.47-3.96-0.72-5.94
	c-0.2-0.5-0.38-1-0.56-1.51l0,0C947.03,590.31,946.91,591.47,946.68,592.6z"/>
<path class="st1" d="M903.73,555.49c14-0.25,28.01-1.22,42.01-1.46c-1.71-0.27-3.48-0.41-5.31-0.41
	c-22.7-0.05-45.39,0.68-68.03,2.17C882.85,555.75,893.29,555.67,903.73,555.49z"/>
<path class="st1" d="M241.55,771.22c-2.16-0.25-4.29-0.59-6.39-1.03c2.5,0.7,5.05,1.26,7.63,1.72
	C242.37,771.68,241.96,771.45,241.55,771.22z"/>
<path class="st1" d="M379.21,750.67c-2.05,3.74-4.82,7.42-8.01,10.27c-0.58,0.52-1.15,0.99-1.72,1.43c1.26-0.93,2.48-1.94,3.66-3.07
	c9.33-8.93,13.41-20.5,14.02-33.17c0.15-3.15,0.15-6.33,0.05-9.52C386.55,728.4,385.01,740.09,379.21,750.67z"/>
</svg>
