<?xml version="1.0" encoding="utf-8"?>
<!-- Generator: Adobe Illustrator 25.2.1, SVG Export Plug-In . SVG Version: 6.00 Build 0)  -->
<svg version="1.1" id="Layer_1" xmlns="http://www.w3.org/2000/svg" xmlns:xlink="http://www.w3.org/1999/xlink" x="0px" y="0px"
	 viewBox="0 0 1200 1200" style="enable-background:new 0 0 1200 1200;" xml:space="preserve">
<style type="text/css">
	.st0{fill:#138F63;}
</style>
<path class="st0" d="M1157.63,872.44c-9.61-137.47-16.69-275-19.25-412.8c-1.27-68.54-1.59-137.1-0.94-205.66
	c0.59-62.56,2.63-132.37-46.72-179.04c-46.1-43.6-113.58-52.95-174.24-56.47c-67.6-3.92-135.2,3.22-202.27,10.96
	c-67.11,7.74-134.03,15.29-201.67,15.78c-68.37,0.5-136.78-3.06-205.09-5.5L206.32,36.1c-12.22-0.44-24.06,7.31-30.03,18.01
	c-22.38,6.59-42.56,19.08-59.12,36.41c-22.25,23.28-36.88,52.63-44.43,83.79c-7.94,32.78-9.15,66.82-9.9,100.38
	c-0.76,34.36-1.43,68.72-1.99,103.08c-2.27,138.15-2.7,276.36,1.08,414.48c0.94,34.35,2.14,68.69,3.64,103.02
	c1.37,31.37,3.18,62.76,8.9,93.7c5.43,29.39,15.6,59.21,32.82,83.85c18.16,25.98,42.23,47.14,70.53,61.55
	c60.18,30.63,127.67,32.66,193.67,27.22c34.21-2.82,68.33-6.43,102.59-8.78c33.97-2.34,67.98-3.96,102.02-4.86
	c68.07-1.81,136.21-0.76,204.2,3.14c33.99,1.95,67.94,4.62,101.82,8c33.53,3.35,67.04,8.9,100.71,10.56
	c34.85,1.71,69.7-3.18,101.08-18.97c31.9-16.05,53.6-44.47,64.82-77.9c5.3-15.78,7.58-32.39,9.5-48.87
	c1.91-16.4,2.8-32.94,3.12-49.44C1162,940.42,1160,906.39,1157.63,872.44z M1090.16,1024.37c-1.82,11.89-4.47,23.61-8.66,34.89
	c-2.41,5.1-5.18,9.98-8.38,14.63c-3.13,3.61-6.51,6.96-10.15,10.07c-5.29,3.67-10.85,6.83-16.67,9.57
	c-8.97,3.37-18.23,5.78-27.69,7.36c-22.33,2.31-44.8,0.58-67.06-1.95c-24.56-2.79-49.07-5.84-73.67-8.26
	c-49.06-4.81-98.27-8.12-147.53-9.94c-98.53-3.63-197.27-1.27-295.51,7.09c-53.62,4.57-107.65,12.22-161.43,6.01
	c-17.85-2.75-35.36-7.28-52.18-13.9c-11.75-5.29-22.94-11.63-33.36-19.19c-7.41-6.12-14.23-12.84-20.37-20.23
	c-6.11-8.51-11.27-17.58-15.62-27.11c-6.78-17.43-10.97-35.68-13.74-54.16c-5.51-44.21-5.76-89.28-7.2-133.73
	c-1.63-50.44-2.68-100.9-3.25-151.36c-1.15-100.94-0.41-201.9,1.29-302.84c0.47-27.92,1.01-55.84,1.61-83.75
	c0.53-24.74,0.8-49.56,3.69-74.16c2.36-15.36,5.96-30.45,11.54-44.96c3.77-8.12,8.27-15.84,13.49-23.11
	c4.76-5.69,9.94-10.96,15.6-15.74c4.69-3.31,9.61-6.24,14.77-8.75c4.32-1.55,8.72-2.77,13.22-3.65c0.25-0.02,0.51-0.05,0.76-0.07
	c9.11-0.68,17.41-3.33,24.04-9.96c0.69-0.69,1.36-1.44,2.01-2.23c42.41,1.51,84.82,3.03,127.24,4.54
	c49.37,1.76,98.75,3.88,148.16,3.76c48.99-0.12,97.7-3.43,146.39-8.67c48.41-5.21,96.69-11.65,145.23-15.61
	c52.94-4.31,106.27-5.49,159.06,1.14c19.55,2.92,38.91,7.27,57.35,14.46c8.51,3.88,16.65,8.43,24.27,13.84
	c4.79,4.03,9.23,8.4,13.29,13.16c3.59,5.14,6.71,10.54,9.39,16.21c3.67,9.83,6.12,20,7.79,30.37c2.47,22.33,1.91,44.84,1.67,67.28
	c-0.3,28.56-0.44,57.13-0.41,85.69c0.06,56.42,0.77,112.83,2.13,169.23c2.75,113.87,8.14,227.67,16.18,341.29
	C1091.72,902.25,1097.4,963.75,1090.16,1024.37z"/>
<path class="st0" d="M854.59,603.98c-2.76-28.45-8.34-56.74-16.34-84.18c-7.35-25.19-17.5-50.19-32.57-71.8
	c-15.41-22.1-33.51-40.33-55.13-56.31c-41.4-30.59-96.25-45.19-147.4-39.94c-14.66,1.5-29.19,3.86-43.34,8.05
	c-11.99,3.55-21.7,14.05-24.4,26.14c-12.22,4.33-24.12,9.35-35.52,14.69c-24.14,11.31-47.43,24.46-67.66,41.99
	c-21.34,18.49-35.7,42.77-45.99,68.74c-17.53,44.22-17.81,95.63-5.35,141.18c12.23,44.72,37.75,87.55,73.28,117.63
	c43.31,36.67,96.81,56.82,152.85,63.11c51.83,5.81,107.11-4.43,151.7-32.08c41.7-25.86,74.8-65.64,88.91-112.99
	C855.68,661.17,857.3,631.95,854.59,603.98z M786.66,649.67c-1.78,10.8-4.54,21.36-8.44,31.58c-4.48,9.71-9.92,18.9-16.2,27.56
	c-7.67,9.36-16.26,17.87-25.64,25.52c-10.49,7.66-21.7,14.2-33.53,19.56c-13.86,5.4-28.24,9.17-42.93,11.49
	c-17.91,1.95-35.92,1.79-53.81-0.23c-19.68-3.06-38.95-8.3-57.47-15.62c-15.28-6.77-29.82-15.02-43.29-24.92
	c-10.51-8.58-20.05-18.2-28.62-28.72c-9.02-12.26-16.65-25.43-22.87-39.32c-5.67-14.45-9.79-29.42-12.26-44.74
	c-1.63-14.78-1.7-29.64-0.1-44.42c2.09-12.8,5.44-25.33,10.13-37.42c3.94-8.54,8.59-16.69,14.06-24.34
	c5.37-6.4,11.31-12.21,17.75-17.53c18.18-13.23,38.68-23.66,59.29-32.63c16.66-6.76,33.85-12.17,51.6-15.09
	c9.49-0.97,18.99-1.13,28.47-0.25c7.65,1.37,15.1,3.43,22.36,6.27c7.73,3.01,19.33,0.59,26.2-3.43c4.57-2.67,8.99-7.01,12.05-11.94
	c11.46,5.31,22.31,11.73,32.5,19.18c10.32,8.4,19.72,17.79,28.14,28.1c7.99,10.93,14.72,22.6,20.27,34.95
	c10.59,26.72,17.3,55.47,21.5,83.86C787.89,614.6,788.48,632.17,786.66,649.67z"/>
<path class="st0" d="M943.56,221.53c-5.32-7.89-11.81-14.97-20.36-19.42c-1.01-0.53-2.03-1.01-3.04-1.48
	c-3.34-1.94-7.06-3.32-11.06-3.98c-0.69-0.19-1.39-0.37-2.11-0.48c-7.45-1.23-14.64-2.32-22.14-1.42
	c-10.37,1.23-18.69,3.35-28.14,7.98c-11.65,5.71-21.68,15.94-28.33,26.97c-6.6,10.95-10.74,25.15-10.1,38
	c0.82,16.62,6.96,30.81,17.63,43.42c8.26,9.76,21.27,17.72,33.77,20.51c16.67,3.72,32.8,1.2,47.91-6.55
	c23.36-11.98,37.13-38.54,37.23-64.26C954.87,247.36,951.12,232.75,943.56,221.53z"/>
</svg>
