<?xml version="1.0" encoding="utf-8"?>
<!-- Generator: Adobe Illustrator 25.2.1, SVG Export Plug-In . SVG Version: 6.00 Build 0)  -->
<svg version="1.1" id="Layer_1" xmlns="http://www.w3.org/2000/svg" xmlns:xlink="http://www.w3.org/1999/xlink" x="0px" y="0px"
	 viewBox="0 0 1200 1200" style="enable-background:new 0 0 1200 1200;" xml:space="preserve">
<style type="text/css">
	.st0{fill:#FF8C00;}
</style>
<path class="st0" d="M332.27,1103.23c-0.64-11.84-1.33-23.67-1.94-35.51c-1.26-24.37-2.38-48.75-3.36-73.14
	c-1.95-48.77-3.34-97.55-4.15-146.34c-1.62-96.88-1-193.78,1.87-290.64c1.43-48.37,4.49-96.75,4.64-145.13
	c0.07-24.01-0.79-48.03-3.54-71.94c-1.47-12.79-2.74-26.17-7.97-38.38c-7.44-17.35-19.03-31.15-37.28-41.99
	c-1.56-0.93-3.2-1.81-4.9-2.66c-19.28-13.38-44.27-13.84-67.34-10.56c-11.6,1.65-23.42,3.94-34.61,7.46
	c-15.47,4.87-28.13,13.11-37.9,26.06c-14.89,19.72-17.83,46.13-18.6,70.07c-0.97,30.25-0.93,60.56-1.37,90.83
	c-1.8,124.98-3.6,249.96-5.4,374.95c-0.46,31.79-1.05,63.58-1.33,95.37c-0.28,30.75,0.09,61.58,3.61,92.16
	c3.49,30.22,9.44,60.04,18.61,89.06c4.35,13.78,9.11,27.65,15.32,40.72c5.93,12.49,15.23,24.44,28.02,30.38
	c4.42,2.05,8.97,3.36,13.54,4.02c13.09,7.65,28.81,10.72,43.92,8.91c33.45,5.7,68.5-6.2,87.98-29.34
	C330.95,1134.67,333.09,1118.48,332.27,1103.23z"/>
<path class="st0" d="M1084.05,879c-1.26-24.91-3.08-49.78-5.4-74.61c-0.19-2.03-0.63-4.04-1.3-5.97
	c-2.55-33.61-5.59-67.18-9.12-100.7c-1.01-37.23-1.79-74.48-5.21-111.58c-3.84-41.72-10.51-83.56-24.22-123.26
	c-11.7-57.1-36.38-113.19-80.76-152.16c-26.1-22.91-56.92-37.21-90.27-46.25c-2.07-0.56-4.15-1.11-6.22-1.65
	c-5.65-2.13-11.42-3.83-17.29-5.15c-22.73-8.2-46.25-13.57-70.4-15.76c-1.53-0.21-3.05-0.42-4.59-0.6
	c-4.08-0.5-8.17-0.87-12.27-1.15c-7.67-1.08-15.36-1.94-23.04-2.54c-2.96-0.44-5.93-0.85-8.91-1.23
	c-28.43-3.63-57.16-2.09-85.55,1.14c-20.41,2.32-40.89,5.18-60.92,9.91c-3.2-2.57-6.58-4.93-10.11-7.06
	c-2.12-5.17-5.04-10-9.22-14.3c-8.04-8.27-19.29-13.14-30.31-15.91c-22.42-5.64-46.43-6.98-69.37-4.3
	c-13.73,1.61-27.52,4-40.62,8.53c-12.35,4.27-22.19,10.76-28.62,21.29c-3.59,2.65-6.69,5.94-9.15,10.21c-1.69,2.92-3,6.37-3.84,10
	c-5.37,6.11-8.66,14.01-8.33,22.93c4.61,123.66,9.22,247.46,5.28,371.22c-1.96,61.57-8,122.84-10.66,184.36
	c-1.87,43.18-0.5,86.32,2.38,129.38c-1.22,2.52-1.89,5.36-1.83,8.41c0.5,28.28,2.11,56.53,4.9,84.67c1.54,15.52,3.47,31,5.63,46.45
	c1.82,13,2.22,28.35,8.89,39.95c3.1,5.4,7.68,9.22,12.92,12.13c2.96,5.67,7.42,10.61,12.97,13.85c15.17,8.86,35.43,5.67,52.2,5.33
	c4.76-0.09,9.52-0.19,14.28-0.28c15.74,1.52,31.54,1.82,47.33,0.36c4.82,0.21,9.63,0.41,14.45,0.62c3.84,0.16,7.65,0.02,11.36-0.47
	c0.37,0.05,0.71,0.1,0.78,0.11c1.8,0.28,3.59,0.57,5.39,0.85c5.35,0.83,10.73,1.69,16.13,2.06c5.37,0.37,10.78,0.05,16.03-1.04
	c1.63,0.24,3.26,0.48,4.89,0.73c13.9,2.06,23.7-5.27,25.32-19.29c0.14-1.25,0.25-2.5,0.36-3.76c5.18-10.16,6.05-22.31,0.83-33.05
	c-2.04-29.21-3.94-58.43-5.65-87.67c0.25-34.48,0.5-68.96,0.76-103.44c0.52-70.84,1.01-141.69,1.56-212.53
	c0.21-26.83,0.54-53.66,1.8-80.46c0.69-3.2,1.41-6.38,2.18-9.56c3.52-14.45,8.03-28.6,13.54-42.42c0.08-0.19,0.14-0.35,0.2-0.51
	c0.22-0.51,0.44-1.03,0.67-1.54c0.77-1.76,1.57-3.51,2.38-5.25c1.63-3.49,3.34-6.94,5.13-10.35c3.47-6.6,7.25-13.03,11.34-19.26
	c1.73-2.63,3.53-5.22,5.39-7.77c0.05-0.03,0.1-0.07,0.16-0.1c3.14-1.98,6.38-3.82,9.69-5.5c1.66-0.84,3.33-1.65,5.02-2.41
	c0.38-0.17,0.77-0.34,1.15-0.51c0.18-0.07,0.4-0.15,0.68-0.25c7.26-2.68,14.6-4.91,22.2-6.4c1.57-0.31,3.14-0.59,4.72-0.84
	c0.41-0.07,0.74-0.12,1.01-0.16c0.18-0.01,0.44-0.03,0.81-0.06c3.99-0.35,7.96-0.65,11.97-0.71c3.47-0.05,6.93,0.03,10.39,0.24
	c1.86,0.12,3.72,0.27,5.58,0.47c0.15,0.02,0.34,0.02,0.53,0.03c0.69,0.1,1.38,0.21,2.07,0.33c7.18,1.2,14.25,3,21.13,5.38
	c1.67,0.58,3.33,1.18,4.97,1.82c0.7,0.27,1.4,0.57,2.11,0.84c2.19,0.86-1.28-0.55-1.3-0.54c1.47-0.6,8.83,4.27,10.18,5
	c6.24,3.38,12.05,7.32,17.82,11.43c0.26,0.19,0.42,0.3,0.52,0.36c0.3,0.28,0.58,0.54,0.8,0.72c1.17,0.96,2.33,1.95,3.47,2.94
	c2.85,2.5,5.61,5.11,8.27,7.81c2.48,2.53,4.87,5.14,7.17,7.84c0.97,1.14,1.89,2.32,2.86,3.47c0.5,0.68,1.01,1.35,1.5,2.04
	c4.23,5.86,8.01,12.03,11.34,18.45c0.97,1.87,1.9,3.76,2.8,5.66c0.51,1.09,1,2.18,1.5,3.28c0.04,0.08,0.23,0.52,0.41,0.93
	c0.17,0.41,0.35,0.85,0.38,0.92c0.44,1.12,0.88,2.23,1.31,3.36c0.69,1.83,1.35,3.67,2,5.51c0.66,3.28,1.27,6.57,1.82,9.87
	c0.42,2.52,0.82,5.05,1.19,7.58c0.03,0.19,0.09,0.54,0.15,0.94c0.15,0.94,0.24,1.9,0.36,2.84c0.76,6.17,1.39,12.36,1.94,18.55
	c5.15,58.18,4.73,116.65,3.98,174.99c-0.74,58.35-1.83,116.78,1.96,175.05c0.41,6.3,0.82,12.76,1.3,19.29
	c-0.6,36.37,2.16,72.73,7.99,108.73c1.82,11.28,2.84,24.38,9.58,34c9.83,14.03,25.17,14.91,40.82,15.96
	c24.31,1.63,48.72,1.8,73.04,0.5c28.7-1.53,57.32-5.08,85.57-10.35c8.01-1.49,12.45-8.14,13.83-15.4c4.15-3.64,6.83-8.89,6.66-14.71
	c-0.49-16.4-1.1-32.8-1.83-49.19C1086.8,1020.25,1087.62,949.53,1084.05,879z"/>
<path class="st0" d="M303.52,76.8c-13.99-15.71-32.99-26.65-52.76-33.34c-19.76-6.68-43.41-9.38-63.41-2.13
	c-14.23,5.16-24.92,14.37-34.31,25.15c-4.35,3.04-8.27,6.61-11.64,10.72c-4.47,4.74-8.53,9.88-12.14,15.13
	c-11.49,16.71-18.39,37.84-18.12,58.26c0,0.01,0,0.03,0,0.04c-0.06,0.99-0.08,1.98-0.09,2.96c-1.35,11.35,0.86,22.37,7.28,32.2
	c0.08,0.18,0.16,0.36,0.24,0.54l0.07-0.06c0.2,0.29,0.4,0.58,0.6,0.87c3.79,8.46,8.83,16.39,15.03,23.58
	c14.96,17.38,36.38,26.17,58.88,27.97c20.64,1.65,42.64-2.84,62.23-9.24c18.97-6.2,38.01-15.55,51.67-30.49
	C339.14,163.88,334.03,111.05,303.52,76.8z"/>
</svg>
